grf
version=1
nRows=25
nColumns=28
inDegrees=no
endheader
time	ground_force_1_vx	ground_force_1_vy	ground_force_1_vz	ground_force_1_px	ground_force_1_py	ground_force_1_pz	ground_moment_1_mx	ground_moment_1_my	ground_moment_1_mz	ground_force_2_vx	ground_force_2_vy	ground_force_2_vz	ground_force_2_px	ground_force_2_py	ground_force_2_pz	ground_moment_2_mx	ground_moment_2_my	ground_moment_2_mz	ground_force_3_vx	ground_force_3_vy	ground_force_3_vz	ground_force_3_px	ground_force_3_py	ground_force_3_pz	ground_moment_3_mx	ground_moment_3_my	ground_moment_3_mz
      0.00000000	      0.64466335	      0.63491703	     -1.03012107	    565.08287510	  -1001.98258661	      1.42945159	      0.10618234	      0.38395672	    210.38760697	      0.50558550	      0.43220402	      0.43314765	  -1022.99894391	   -785.84042481	      0.85634351	     -0.07264682	     -0.93953676	   1125.82192755	      1.93169522	     -1.20933309	   -963.83267405	    429.62945614	   -448.07361079	      0.71222359	     -0.05102075	      0.37479468	    182.50257824
      0.01000000	      0.55558342	      0.70710437	     -1.07296141	    583.46265985	   -871.91390273	      1.18280040	      0.12881839	      0.46580898	    255.23823859	      0.50173420	      0.71753204	      0.23963914	  -7017.75972433	   5533.16141146	      5.74293712	     -0.58828088	     -7.60820011	   9116.70396891	      1.73659686	     -1.08313537	   -964.85548538	    429.96253892	   -448.29879689	      0.71277916	     -0.08229880	      0.60456095	    294.38499624
      0.02000000	      0.57433806	      0.73758119	     -1.14659265	    476.61611710	   -892.37579093	      1.27406859	      0.16856744	      0.60954204	    333.99621815	      0.35374595	      0.86440944	      0.29096305	  -2121.58344844	    579.93896542	      1.92524371	     -0.19818765	     -2.56314857	   3071.35279905	      1.55779614	     -0.85702461	   -966.59491316	    430.22917300	   -448.35601487	      0.71297121	     -0.07895683	      0.58001112	    282.43069887
      0.03000000	      0.49767821	      0.49121648	     -1.07694039	    538.64552819	   -840.76247124	      1.14856828	      0.16051383	      0.58042008	    318.03895288	      0.28095480	      0.62538185	      1.32788589	   -153.72582378	  -1345.71968066	      0.44519748	     -0.02904663	     -0.37565827	    450.14132340	      1.20277772	     -1.04332683	   -966.84257323	    430.02947890	   -448.35498717	      0.71291327	     -0.05817245	      0.42733055	    208.08439861
      0.04000000	      0.60435288	      0.65430163	     -0.75195794	    591.09007474	   -665.12369972	      0.80155939	      0.19152606	      0.69256070	    379.48597234	      0.44511586	      0.58190598	      0.91298305	   -353.72763011	  -1266.30489697	      0.49856615	     -0.04672949	     -0.60434956	    724.17601033	      1.41333867	     -1.08534853	   -966.42919953	    430.08987721	   -448.84901402	      0.71394471	     -0.02838389	      0.20850599	    101.52993841
      0.05000000	      0.36212065	      0.59482315	     -0.55672871	    532.97376028	   -606.77616519	      0.72440655	      0.16016636	      0.57916361	    317.35047255	      0.23142918	      0.66316354	      1.92438707	     88.35487079	  -1542.07285319	      0.29695500	     -0.02025822	     -0.26199829	    313.94558936	      1.06423016	     -1.29673917	   -965.56426659	    429.96358260	   -448.81742873	      0.71384454	     -0.02701691	      0.19846422	     96.64019789
      0.06000000	      0.45609915	      0.70772507	     -0.68934538	    532.82143764	   -576.05206521	      0.66841204	      0.20686787	      0.74803691	    409.88394637	      0.28090721	      0.72945009	      0.69303089	   -577.81757853	  -1061.93591695	      0.65465899	     -0.06754916	     -0.87360915	   1046.82262461	      0.87708095	     -1.31280036	   -963.93168645	    430.21536859	   -448.90731948	      0.71409953	     -0.01234916	      0.09071601	     44.17326657
      0.07000000	      0.57789738	      0.77441683	     -1.05413494	    552.02912566	   -874.41407875	      1.20322768	      0.13756746	      0.49744571	    272.57346621	      0.19248837	      0.47960930	      0.82859668	   -451.06369779	   -976.13792835	      0.73443949	     -0.03869166	     -0.50039683	    599.61221827	      0.62948530	     -1.33590753	   -962.53395207	    430.24887061	   -449.16768531	      0.71464359	     -0.01650246	      0.12122590	     59.02975845
      0.08000000	      0.56756997	      0.63523543	     -0.76415202	    543.08310964	   -775.15583708	      1.02659674	      0.18875719	      0.68254845	    373.99980093	      0.59433299	      0.57749288	      1.20967284	    -38.83117683	  -1315.56412657	      0.47777722	     -0.03787916	     -0.48988887	    587.02081511	      0.86422318	     -1.03526040	   -960.74984264	    430.27688060	   -448.96083841	      0.71422664	     -0.03712434	      0.27271269	    132.79475666
      0.09000000	      0.47207198	      0.81011194	     -0.62988266	    627.08352476	   -748.87060358	      0.93623138	      0.10855664	      0.39254221	    215.09199510	      0.49374304	      0.74890205	      0.49491374	  -1024.61698422	   -732.31425124	      0.90090852	     -0.10446305	     -1.35101412	   1618.88430897	      1.22835045	     -0.71869597	   -960.98917587	    430.33269359	   -448.90463275	      0.71412681	     -0.04844403	      0.35586633	    173.28560208
      0.10000000	      0.60460135	      0.47369965	     -1.03136704	    599.19895290	   -702.40917756	      0.86551273	      0.20190512	      0.73009152	    400.05083922	      0.58233123	      0.74392029	      0.43641738	  -1226.83402019	   -810.70971928	      0.82243621	     -0.12087279	     -1.56324034	   1873.18934545	      1.53135998	     -0.21825009	   -962.42469767	    430.55182961	   -449.26832887	      0.71493498	     -0.06748771	      0.49575981	    241.40535651
      0.11000000	      0.53119265	      0.73640960	     -1.23276789	    466.26395251	   -916.15187068	      1.32268458	      0.16322202	      0.59021294	    323.40490870	      0.39576443	      0.61825553	      0.58691381	   -855.25808900	   -929.64943045	      0.74715394	     -0.07905470	     -1.02240953	   1225.12615948	      1.68380858	      0.37649688	   -963.80414673	    430.56730073	   -449.19212140	      0.71478280	     -0.09692468	      0.71200165	    346.70218570
      0.12000000	      0.36095293	      0.64885585	     -0.85711061	    567.46165094	   -755.81815230	      0.97900171	      0.11840888	      0.42816804	    234.61303011	      0.40859947	      0.61908489	      1.09203630	   -224.05529094	  -1162.38778421	      0.59365599	     -0.04438282	     -0.57400021	    687.80919710	      1.89639490	      0.80730882	   -963.75573843	    430.43304724	   -449.46790992	      0.71531164	     -0.10194244	      0.74886171	    364.65083297
      0.13000000	      0.69236019	      0.60556721	     -0.95268767	    612.03911280	   -920.64886378	      1.25731906	      0.13252859	      0.47922511	    262.58955446	      0.32759736	      0.50113414	      0.79406118	   -479.43580331	  -1027.17238064	      0.69001871	     -0.04599786	     -0.59488751	    712.83788984	      1.58282624	      0.88181381	   -963.52621989	    430.37057793	   -449.44412774	      0.71524533	     -0.10979952	      0.80657922	    392.75580178
      0.14000000	      0.46973236	      0.60008034	     -0.82603559	    532.98109252	   -716.43760958	      0.92453464	      0.17737164	      0.64137815	    351.44069092	      0.47341429	      0.61886270	      0.77407159	   -587.96821972	  -1175.57813900	      0.55916569	     -0.05827625	     -0.75368317	    903.11850906	      1.46895628	      0.71570118	   -963.98860023	    430.44824724	   -449.46552498	      0.71531099	     -0.09467279	      0.69545942	    338.64711259
      0.15000000	      0.64444809	      0.71546130	     -1.11084531	    548.04304305	   -827.75766678	      1.12009164	      0.18407729	      0.66562584	    364.72712012	      0.23248870	      0.46976847	      0.52140034	   -966.09852415	  -1008.46564900	      0.67422683	     -0.05570026	     -0.72036803	    863.19786051	      1.05501126	      0.37016495	   -963.99957875	    430.38806372	   -449.52256709	      0.71541131	     -0.07482956	      0.54969249	    267.66734358
      0.16000000	      0.54490829	      0.70758304	     -0.87259429	    562.19328912	   -883.36141729	      1.21442670	      0.13108368	      0.47400029	    259.72663867	      0.40561152	      0.67580165	      0.57111717	   -823.46710470	   -901.89275997	      0.77236923	     -0.07683279	     -0.99367374	   1190.69283064	      0.82596345	     -0.14669516	   -963.06098653	    430.40347339	   -449.46894698	      0.71530550	     -0.05799912	      0.42605728	    207.46439193
      0.17000000	      0.72650310	      0.59422188	     -0.96400212	    577.63818180	   -875.96128462	      1.19312647	      0.15828639	      0.57236563	    313.62554812	      0.25911281	      0.72444184	      1.28277267	    -96.35350040	  -1334.24402134	      0.45847642	     -0.03733306	     -0.48282621	    578.55781836	      0.65099719	     -0.60702273	   -962.14372894	    430.22490032	   -449.26263305	      0.71483188	     -0.05810601	      0.42684253	    207.84676545
      0.18000000	      0.47844471	      0.71553425	     -0.86149700	    530.15470191	   -709.27887711	      0.91289645	      0.17753033	      0.64195198	    351.75511683	      0.57004726	      0.52411382	      0.26128459	  -2220.47712022	    503.50062241	      1.85507191	     -0.17547480	     -2.26940475	   2719.36738973	      0.77307027	     -1.28436356	   -962.20458960	    430.05066879	   -449.18171896	      0.71461701	     -0.08427349	      0.61906693	    301.44854328
      0.19000000	      0.62059115	      0.49737611	     -1.27310800	    521.29678625	  -1013.68344682	      1.47290441	      0.13130496	      0.47480043	    260.16506736	      0.35927946	      0.66485751	      0.81677483	   -334.43228105	  -1262.53128113	      0.50296044	     -0.05224144	     -0.67563536	    809.59589729	      0.94934448	     -1.59928393	   -962.11780997	    430.07148030	   -449.10656383	      0.71446848	     -0.11558610	      0.84908704	    413.45456765
      0.20000000	      0.68455662	      0.83644310	     -1.18920831	    535.59182857	   -993.86210707	      1.42951583	      0.11413281	      0.41270572	    226.14050986	      0.42661048	      0.66572637	      0.08853003	  -6809.28352655	   4797.67589858	      5.14260191	     -0.49429312	     -6.39266225	   7660.15725805	      1.14395782	     -1.52903505	   -963.13118348	    430.17331077	   -449.08501882	      0.71445270	     -0.11829193	      0.86896390	    423.13340748
      0.21000000	      0.47788574	      0.53250140	     -0.97304308	    550.62235557	   -826.82584224	      1.11708929	      0.14990577	      0.54206121	    297.02035767	      0.27440804	      0.43103229	      0.39315459	  -1423.69109349	    -55.06860562	      1.44034171	     -0.08637313	     -1.11705831	   1338.54128295	      1.27184248	     -1.27940817	   -964.05392981	    429.92653653	   -449.29019727	      0.71480508	     -0.14756217	      1.08398094	    527.83383537
      0.22000000	      0.58137957	      0.88260447	     -0.81020100	    587.12618022	   -708.29299143	      0.88234378	      0.16449261	      0.59480742	    325.92243657	      0.31645161	      0.48648211	      0.56467317	   -592.97872125	   -737.24777520	      0.92464399	     -0.05508022	     -0.71234902	    853.58890241	      1.31578782	     -0.74069102	   -965.45402324	    430.21469312	   -449.32421008	      0.71495549	     -0.14133450	      1.03823289	    505.55727645
      0.23000000	      0.61575419	      0.70456683	     -1.07447623	    531.71242421	  -1019.29300441	      1.47788507	      0.12554894	      0.45398658	    248.76019862	      0.37397029	      0.61872581	      0.93595554	   -231.99011545	  -1254.86349852	      0.51596984	     -0.04364561	     -0.56446598	    676.38457930	      1.52465509	      0.09455236	   -966.03917218	    429.97806864	   -449.71307232	      0.71568792	     -0.17961827	      1.31946269	    642.49935748
      0.24000000	      0.45333102	      0.72104489	     -0.77839506	    568.67950088	   -695.36431725	      0.86805901	      0.14502539	      0.52441367	    287.35045182	      0.21102200	      0.59693362	      0.48455289	  -1180.59639373	   -208.70257391	      1.32781530	     -0.08463497	     -1.09457881	   1311.60469156	      1.64186672	      0.37124923	   -963.64458304	    430.17366819	   -449.87466981	      0.71607446	     -0.18916457	      1.38958910	    676.64671825
